<svg xmlns="http://www.w3.org/2000/svg" viewBox="0 0 75.5 75.5"><defs><style>.cls-1{fill:#0be1ff;}.cls-2,.cls-3,.cls-4,.cls-5{stroke:#000;stroke-linecap:round;stroke-linejoin:round;}.cls-2{opacity:0.53;}.cls-3{fill:#ffe20e;}.cls-4{fill:#fff;}.cls-5{fill:none;}</style></defs><title>IconAR</title><g id="Layer_2" data-name="Layer 2"><g id="Layer_1-2" data-name="Layer 1"><rect class="cls-1" width="75" height="75"/><polygon class="cls-2" points="4.37 67.61 12.06 74.64 75 75 75 38.17 75 35.89 43.47 10.26 4.37 67.61"/><rect class="cls-3" x="4.96" y="46.01" width="63.44" height="21.6"/><path class="cls-4" d="M70.12,32.42v34.1A1.09,1.09,0,0,1,69,67.61H67.26a1.09,1.09,0,0,1-1.09-1.09V51.94a1.09,1.09,0,0,0-1.09-1.09,3.43,3.43,0,0,0-5.88,0,1.13,1.13,0,0,0-.77.32,1.08,1.08,0,0,0-.32.77V66.52A1.09,1.09,0,0,1,57,67.61H55.26a1.09,1.09,0,0,1-1.09-1.09V51.94a1.09,1.09,0,0,0-1.09-1.09,3.19,3.19,0,0,0-2.58-2.08,3.23,3.23,0,0,0-3.3,2.08,1.13,1.13,0,0,0-.77.32,1.08,1.08,0,0,0-.32.77V66.52A1.09,1.09,0,0,1,45,67.61h-3.2a1.09,1.09,0,0,1-1.09-1.09V51.94a1.09,1.09,0,0,0-1.09-1.09c.28-2.24-1.3-4-2.77-4.08s-3.37,1.7-3.11,4.08a1.13,1.13,0,0,0-.77.32,1.08,1.08,0,0,0-.32.77V66.52a1.09,1.09,0,0,1-1.09,1.09h-2a1.09,1.09,0,0,1-1.09-1.09V51.94a1.09,1.09,0,0,0-1.09-1.09,3.08,3.08,0,0,0-5.89,0,1.13,1.13,0,0,0-.77.32,1.08,1.08,0,0,0-.32.77V66.52a1.09,1.09,0,0,1-1.09,1.09H16.93a1.09,1.09,0,0,1-1.09-1.09V51.94a1.09,1.09,0,0,0-1.09-1.09A3.59,3.59,0,0,0,12,49a3.37,3.37,0,0,0-3.24,1.84,1.13,1.13,0,0,0-.77.32,1.08,1.08,0,0,0-.32.77V66.52a1.09,1.09,0,0,1-1.09,1.09H4.37a1.09,1.09,0,0,1-1.09-1.09V32.42a1.09,1.09,0,0,1,1.09-1.09H24a1.09,1.09,0,0,0,1.09-1.09V25.38a1.09,1.09,0,0,1,1.09-1.09h0v-3H27a2.51,2.51,0,0,1-.39-.45c-.1-.13-.23-.31-.38-.53v-.79a1.73,1.73,0,0,0,.55-.51c.07-.1.09-.15.32-.54l.07-.12a.43.43,0,0,1-.23-.39.47.47,0,0,1,.47-.47.47.47,0,0,1,.23.87.41.41,0,0,0,.05.09A5.14,5.14,0,0,0,28,19a2.77,2.77,0,0,0,.52.53v.79a2.72,2.72,0,0,1-.25.46,2.11,2.11,0,0,1-.44.52h.69v3H30V13.42h.75V10.26a4.68,4.68,0,0,0,1.3.06,4.69,4.69,0,0,0,2.88-1.27c1-.8.87-1.18,1.54-1.46A2,2,0,0,1,38,7.52c.56.24.5.63,1.35,1.43a5.37,5.37,0,0,0,1.14.83,4,4,0,0,0,1.55.55,4.21,4.21,0,0,0,1.42-.07v3.16h.61V24.29H45.4V21.57h.77a2.51,2.51,0,0,1-.39-.45c-.1-.13-.23-.31-.38-.53V19.8a1.73,1.73,0,0,0,.55-.51c.07-.1.09-.15.32-.54l.07-.12a.43.43,0,0,1-.23-.39.47.47,0,0,1,.47-.47.47.47,0,0,1,.23.87.41.41,0,0,0,0,.09,5.14,5.14,0,0,0,.37.54,2.77,2.77,0,0,0,.52.53v.79a2.72,2.72,0,0,1-.25.46,2.11,2.11,0,0,1-.44.52h.69v2.79a1.07,1.07,0,0,1,.71,1v4.86a1.09,1.09,0,0,0,1.09,1.09H69A1.09,1.09,0,0,1,70.12,32.42Z"/><line class="cls-3" x1="3.28" y1="45.05" x2="70.12" y2="45.15"/><path class="cls-3" d="M11.5,35.89h1.14a3,3,0,0,1,3,3v6.25a0,0,0,0,1,0,0H8.5a0,0,0,0,1,0,0V38.89A3,3,0,0,1,11.5,35.89Z"/><path class="cls-3" d="M24,35.89h1.14a3,3,0,0,1,3,3v6.25a0,0,0,0,1,0,0H21a0,0,0,0,1,0,0V38.89A3,3,0,0,1,24,35.89Z"/><path class="cls-3" d="M36.46,35.89H37.6a3,3,0,0,1,3,3v6.25a0,0,0,0,1,0,0H33.46a0,0,0,0,1,0,0V38.89A3,3,0,0,1,36.46,35.89Z"/><path class="cls-3" d="M49.63,35.89h1.14a3,3,0,0,1,3,3v6.25a0,0,0,0,1,0,0H46.63a0,0,0,0,1,0,0V38.89A3,3,0,0,1,49.63,35.89Z"/><path class="cls-3" d="M61.26,35.89H62.4a3,3,0,0,1,3,3v6.25a0,0,0,0,1,0,0H58.26a0,0,0,0,1,0,0V38.89A3,3,0,0,1,61.26,35.89Z"/><circle class="cls-4" cx="36.84" cy="17.17" r="2.7"/><line class="cls-5" x1="36.84" y1="17.17" x2="36.84" y2="14.96"/><line class="cls-5" x1="35.05" y1="18.82" x2="36.84" y2="17.17"/><path class="cls-5" d="M30,24.4a4.1,4.1,0,0,0,2,.05c1.37-.39.69-1.62,2-2.36a7.92,7.92,0,0,1,6.28.16c1.09.71.54,1.7,1.77,2.11a4.61,4.61,0,0,0,2,0"/></g></g></svg>